PathFileType	4	(X/Y/Z)	/Users/itak/Documents/Research/Walk-IL/dataset/trc/00224_00009.trc
DataRate	CameraRate	NumFrames	NumMarkers	Units	OrigDataRate	OrigDataStartFrame	OrigNumFrames
100.000000	100.000000	4	53	mm	100.000000	331	530
Frame#	Time	RPSI			LPSI			L3			STRN			T10			C7			CLAV			RBAK			LBAK			LSHO			LUPA			LAEL			LAOL			LWTS			LWPS			LFRA			LIFD			LHPS			LHTS			RSHO			RUPA			RAEL			RAOL			RWTS			RWPS			RFRA			RIFD			RHTS			RHPS			RBHD			LFHD			RFHD			LBHD			LHIP			RHIP			RASI			LASI			LKNE			LTHI			LANK			LTIP			LTOE			LMT1			LMT5			LHEE			RKNE			RANK			RTIP			RTOE			RMT1			RMT5			RHEE			RTHI			
		X1	Y1	Z1	X2	Y2	Z2	X3	Y3	Z3	X4	Y4	Z4	X5	Y5	Z5	X6	Y6	Z6	X7	Y7	Z7	X8	Y8	Z8	X9	Y9	Z9	X10	Y10	Z10	X11	Y11	Z11	X12	Y12	Z12	X13	Y13	Z13	X14	Y14	Z14	X15	Y15	Z15	X16	Y16	Z16	X17	Y17	Z17	X18	Y18	Z18	X19	Y19	Z19	X20	Y20	Z20	X21	Y21	Z21	X22	Y22	Z22	X23	Y23	Z23	X24	Y24	Z24	X25	Y25	Z25	X26	Y26	Z26	X27	Y27	Z27	X28	Y28	Z28	X29	Y29	Z29	X30	Y30	Z30	X31	Y31	Z31	X32	Y32	Z32	X33	Y33	Z33	X34	Y34	Z34	X35	Y35	Z35	X36	Y36	Z36	X37	Y37	Z37	X38	Y38	Z38	X39	Y39	Z39	X40	Y40	Z40	X41	Y41	Z41	X42	Y42	Z42	X43	Y43	Z43	X44	Y44	Z44	X45	Y45	Z45	X46	Y46	Z46	X47	Y47	Z47	X48	Y48	Z48	X49	Y49	Z49	X50	Y50	Z50	X51	Y51	Z51	X52	Y52	Z52	X53	Y53	Z53	

332	3.31	105.7184906005859	1018.291442871094	-35.95917892456055	94.17153930664062	1025.034545898438	83.73795318603516	99.54006958007812	1112.68017578125	41.44048690795898	-161.9465637207031	1278.957153320312	29.25119590759277	97.19686126708984	1240.7607421875	39.49267196655273	12.30730724334717	1496.8583984375	39.6125373840332	-144.2736511230469	1398.073852539062	29.89887619018555	105.063720703125	1365.23583984375	-29.04855155944824	27.52775955200195	1458.6904296875	153.9726104736328	-66.31089782714844	1452.536743164062	201.20751953125	-51.02462005615234	1335.368774414062	282.703369140625	-99.58108520507812	1128.949462890625	309.4468078613281	-25.02588272094727	1099.455688476562	275.1936340332031	-231.6488189697266	926.3035278320312	224.9195556640625	-223.7279510498047	900.7737426757812	305.7543334960938	-146.6966094970703	1029.083618164062	314.2112426757812	-298.8539733886719	744.1170043945312	221.5271606445312	-265.8661499023438	822.9620971679688	294.612060546875	-300.7646789550781	842.485595703125	235.9835205078125	-32.73408126831055	1449.560668945312	-132.6640777587891	-5.089409828186035	1385.618286132812	-197.8217163085938	33.80552291870117	1107.673950195312	-234.9950561523438	43.18355941772461	1094.249145507812	-140.845947265625	-112.8402099609375	898.2904663085938	-255.6467437744141	-39.36264801025391	885.56201171875	-298.2514343261719	13.0086784362793	1041.240112304688	-258.88134765625	-131.3999328613281	706.2991333007812	-271.5403442382812	-147.0653381347656	781.41845703125	-294.3404846191406	-78.76934814453125	781.8078002929688	-322.781494140625	-40.91624450683594	1650.518432617188	-14.90796375274658	-251.3545532226562	1672.708251953125	68.0008544921875	-245.3049926757812	1670.955444335938	-31.90884399414062	-93.73841857910156	1654.156372070312	115.1035461425781	-16.61502075195312	963.4450073242188	217.5714416503906	14.76500606536865	981.5518798828125	-148.8668975830078	-83.30602264404297	1024.62548828125	-116.8430099487305	-113.080810546875	1005.606994628906	162.8243103027344	-65.21272277832031	479.796875	141.7251434326172	-61.50350952148438	623.357421875	178.1636352539062	127.2354354858398	35.07898330688477	143.8760375976562	27.27070236206055	263.2559814453125	149.8778228759766	-64.63800811767578	40.19935607910156	31.75441932678223	13.5118350982666	35.58865356445312	9.398009300231934	-1.984320998191833	34.31157684326172	124.9903869628906	200.5405426025391	50.97777557373047	110.213981628418	-191.4300537109375	528.9539184570312	-130.5234222412109	-254.8415069580078	36.33266448974609	-100.6123962402344	-236.526611328125	415.193359375	-116.9151153564453	-456.1473693847656	103.7122344970703	-92.073486328125	-410.8113708496094	88.54091644287109	-40.15573883056641	-357.5426940917969	57.41052627563477	-140.3094940185547	-202.0604553222656	29.49859809875488	-32.97255706787109	-92.93795013427734	777.69921875	-171.3537292480469	
333	3.32	113.6883316040039	1019.58349609375	-34.45483016967773	101.7409133911133	1026.110229492188	85.23751068115234	107.574592590332	1114.373291015625	42.72616577148438	-153.9331207275391	1280.487060546875	30.063232421875	105.2800903320312	1242.343505859375	40.57109451293945	20.19255447387695	1498.40966796875	40.40874481201172	-136.3178863525391	1399.623901367188	30.74781036376953	113.0904922485352	1366.951049804688	-28.19566917419434	35.56433868408203	1460.282104492188	154.7159423828125	-58.23460388183594	1454.064575195312	202.1240234375	-42.33997344970703	1336.92919921875	283.6275634765625	-89.59252166748047	1130.275024414062	310.5058898925781	-15.00511169433594	1101.169311523438	276.1171569824219	-221.1786346435547	927.5091552734375	225.6570281982422	-213.2601928710938	901.740966796875	306.3628540039062	-136.5649108886719	1030.278564453125	315.1003112792969	-288.2618713378906	745.2897338867188	221.5732574462891	-255.2712097167969	823.8867797851562	294.9656677246094	-290.2512512207031	843.5877685546875	236.4217834472656	-24.77698707580566	1451.15576171875	-131.9092407226562	2.92140531539917	1387.07568359375	-196.9650115966797	42.26485061645508	1108.940673828125	-232.9414367675781	51.44805526733398	1095.890014648438	-138.7506866455078	-104.8264312744141	899.8693237304688	-253.1637420654297	-31.42657661437988	886.7132568359375	-295.5316162109375	21.44150733947754	1042.400268554688	-256.6288146972656	-124.1449890136719	707.8974609375	-268.3470153808594	-139.4605255126953	782.9716186523438	-291.5532531738281	-71.01084899902344	782.984375	-319.7141723632812	-33.6456298828125	1652.40673828125	-13.89676666259766	-243.9252471923828	1673.521850585938	69.64498901367188	-238.162109375	1672.016845703125	-30.30866622924805	-86.139404296875	1655.542358398438	116.2599029541016	-9.329981803894043	964.653076171875	218.5925750732422	23.06858253479004	983.3504028320312	-147.7975158691406	-75.00333404541016	1026.587280273438	-116.0396347045898	-105.8052825927734	1007.169860839844	163.4377136230469	-61.62619781494141	481.2686157226562	141.909423828125	-56.80720138549805	624.70263671875	178.4879455566406	127.2073822021484	34.96364593505859	143.8968658447266	29.00603866577148	264.0660095214844	149.933349609375	-64.68848419189453	40.19254684448242	31.75385665893555	13.47493267059326	35.60805511474609	9.47547721862793	-2.014143705368042	34.33341979980469	124.9751281738281	200.4342346191406	50.64833831787109	110.2992553710938	-184.6983337402344	531.029296875	-130.1687316894531	-235.7583312988281	37.10906600952148	-100.3731689453125	-227.7006988525391	416.1284790039062	-116.4224472045898	-438.4199523925781	99.89804840087891	-90.10048675537109	-392.5092163085938	85.28049468994141	-38.58383560180664	-339.149169921875	56.18756103515625	-139.3282928466797	-182.4107513427734	31.21443367004395	-33.14151000976562	-85.60694122314453	779.98828125	-170.9177856445312	
334	3.33	121.5004425048828	1020.99267578125	-33.00529479980469	109.1555862426758	1027.273315429688	86.67618560791016	115.4352951049805	1116.1669921875	43.98563385009766	-146.0227813720703	1282.143432617188	30.83529853820801	113.1461563110352	1244.000122070312	41.66487121582031	28.00814247131348	1500.051513671875	41.15653610229492	-128.4379577636719	1401.304931640625	31.5390739440918	121.0175399780273	1368.75048828125	-27.37546348571777	43.49210357666016	1461.996826171875	155.4145660400391	-50.27365875244141	1455.754272460938	202.9833984375	-33.74670791625977	1338.662963867188	284.5119018554688	-79.44846343994141	1131.721313476562	311.4990844726562	-4.828100204467773	1103.090576171875	276.9047546386719	-210.4165954589844	928.6705322265625	226.4384765625	-202.3760070800781	902.6961669921875	307.0131225585938	-126.142707824707	1031.542114257812	315.9682922363281	-276.9915466308594	746.2743530273438	221.7988739013672	-244.1202392578125	824.7221069335938	295.4322509765625	-279.2138977050781	844.49169921875	237.0092620849609	-16.89970779418945	1452.856689453125	-131.19677734375	10.85901927947998	1388.65380859375	-196.1459503173828	50.67904663085938	1110.35009765625	-230.9803466796875	59.73491287231445	1097.68115234375	-136.7428894042969	-96.77847290039062	901.537353515625	-250.63427734375	-23.51000595092773	887.9794921875	-292.843994140625	29.8276195526123	1043.693115234375	-254.4515533447266	-116.6999053955078	709.55517578125	-264.9733276367188	-131.7892913818359	784.5532836914062	-288.6243286132812	-63.23163986206055	784.2254028320312	-316.5814208984375	-26.35176277160645	1654.347290039062	-12.98488235473633	-236.4389038085938	1674.548217773438	71.19818878173828	-230.971923828125	1673.2685546875	-28.79950141906738	-78.49904632568359	1657.042358398438	117.3182373046875	-2.224212646484375	965.8895874023438	219.5234985351562	31.18466567993164	985.3316650390625	-146.780029296875	-66.83783721923828	1028.741333007812	-115.2387161254883	-98.66629028320312	1008.804260253906	164.0419769287109	-57.92961502075195	482.8055725097656	142.0980529785156	-52.1113166809082	626.121826171875	178.7814025878906	127.1705474853516	34.88100051879883	143.9492797851562	30.81902885437012	264.9710388183594	150.0164031982422	-64.75447845458984	40.16894149780273	31.76737594604492	13.42940235137939	35.65248107910156	9.570745468139648	-2.048128604888916	34.35021209716797	124.9699096679688	200.3060150146484	50.34907150268555	110.4309158325195	-177.9879150390625	533.19482421875	-129.7670288085938	-215.6849365234375	38.0480842590332	-100.3453369140625	-218.6255035400391	417.0850219726562	-115.9235610961914	-419.5774841308594	96.01824951171875	-87.68000793457031	-372.9070129394531	82.03545379638672	-36.71648788452148	-319.818603515625	55.005859375	-138.1841583251953	-161.5465087890625	33.16691207885742	-33.71012496948242	-78.53660583496094	782.4498901367188	-170.3394317626953	
335	3.34	129.1529693603516	1022.4765625	-31.63391494750977	116.4337005615234	1028.495849609375	88.02915191650391	123.1275100708008	1118.012939453125	45.19573211669922	-138.2136993408203	1283.88330078125	31.57847785949707	120.8059234619141	1245.689575195312	42.75235366821289	35.76169586181641	1501.744995117188	41.86811828613281	-120.629753112793	1403.071899414062	32.28536987304688	128.8505706787109	1370.58935546875	-26.58342361450195	51.31647109985352	1463.78369140625	156.0806427001953	-42.42529678344727	1457.556396484375	203.7955780029297	-25.24410820007324	1340.517211914062	285.3695373535156	-69.18047332763672	1133.240600585938	312.4427185058594	5.476155757904053	1105.169555664062	277.5794677734375	-199.3790588378906	929.748046875	227.2598876953125	-191.1018218994141	903.60205078125	307.7056579589844	-115.4897842407227	1032.828125	316.8078308105469	-265.0565185546875	747.0347290039062	222.1985778808594	-232.4440155029297	825.433837890625	296.00537109375	-267.6786193847656	845.1629028320312	237.7362518310547	-9.106502532958984	1454.61328125	-130.512939453125	18.72247314453125	1390.306396484375	-195.3564453125	59.04133987426758	1111.857421875	-229.1280517578125	68.04094696044922	1099.570678710938	-134.8439483642578	-88.72208404541016	903.2544555664062	-248.0940551757812	-15.61279010772705	889.318359375	-290.2119445800781	38.16038513183594	1045.076171875	-252.3706970214844	-109.0920257568359	711.2340087890625	-261.4549255371094	-124.0707168579102	786.1298828125	-285.5843200683594	-55.44533538818359	785.4924926757812	-313.4115905761719	-19.0197582244873	1656.292114257812	-12.16250133514404	-228.8940734863281	1675.755981445312	72.6422119140625	-223.7193756103516	1674.670166015625	-27.39495468139648	-70.81896209716797	1658.622924804688	118.2831802368164	4.695608139038086	967.1321411132812	220.3564605712891	39.11302185058594	987.4277954101562	-145.8211975097656	-58.81479263305664	1031.014770507812	-114.4421997070312	-91.64206695556641	1010.480224609375	164.6431579589844	-54.02852249145508	484.38916015625	142.2906188964844	-47.32974243164062	627.593505859375	179.0452270507812	127.1423034667969	34.81325149536133	144.0158538818359	32.78003311157227	265.930908203125	150.1146392822266	-64.83247375488281	40.12892532348633	31.7966194152832	13.38972949981689	35.70011138916016	9.655959129333496	-2.076759576797485	34.36955642700195	124.9601898193359	200.1924896240234	50.03774261474609	110.5603332519531	-171.2570495605469	535.3563232421875	-129.3229827880859	-194.7194061279297	39.19200134277344	-100.5241241455078	-209.2615356445312	418.0141906738281	-115.4272994995117	-399.7100524902344	92.13201904296875	-85.00064086914062	-352.1499938964844	78.87921142578125	-34.70428085327148	-299.6078796386719	53.89237594604492	-136.9766845703125	-139.6428375244141	35.3903923034668	-34.62715911865234	-71.70050811767578	784.9843139648438	-169.5794372558594	
